<svg width="14" height="14" viewBox="0 0 14 14" fill="none" xmlns="http://www.w3.org/2000/svg">
<path fill-rule="evenodd" clip-rule="evenodd" d="M6.81493 11.5999C5.34061 11.5999 4.29926 13.6523 3.10291 12.7872C1.90656 11.9221 3.53795 9.65117 3.10291 8.56977C2.66787 7.48838 0.710209 7 1.03649 5.65C1.36276 4.30001 3.75547 4.67675 4.51678 3.85305C5.2781 3.02935 5.4246 1 7.01824 1C8.61189 1 8.85485 3.28427 9.48644 3.85305C10.281 4.56861 13 4.15728 13 5.65C13 7.14273 11.0646 7.37009 10.8248 8.56977C10.585 9.76946 11.9124 11.7058 10.8248 12.5709C9.73722 13.4361 8.28926 11.5999 6.81493 11.5999Z" fill="white" stroke="#9F9F9F"/>
</svg>
